<svg width="40" height="40" viewBox="0 0 40 40" fill="none" xmlns="http://www.w3.org/2000/svg">
<path d="M20.0011 7.7101e-08C14.8301 -0.000453693 9.85995 2.00207 6.13356 5.58736C2.40717 9.17264 0.214217 14.062 0.0148798 19.2294C-0.184457 24.3968 1.62532 29.4405 5.06443 33.3023C8.50355 37.164 13.3047 39.5435 18.4603 39.9415C18.8968 39.9862 19.3355 40.0048 19.7742 39.9971C19.8507 39.9971 19.9251 40 20.0011 40C25.3051 40 30.3919 37.8929 34.1424 34.1421C37.893 30.3914 40 25.3043 40 20C40 14.6957 37.893 9.60859 34.1424 5.85786C30.3919 2.10714 25.3051 1.56142e-07 20.0011 7.7101e-08ZM29.2199 26.5122C29.3292 26.9293 29.4123 27.3528 29.4686 27.7803C29.4686 27.7829 29.4703 27.7854 29.4707 27.7881C29.5667 28.4121 29.586 29.0456 29.5281 29.6743H29.5262C29.4929 30.2486 29.4067 30.8185 29.2689 31.377C28.7311 33.598 27.4455 35.5663 25.6282 36.9515C23.8108 38.3367 21.5722 39.0545 19.2883 38.9843C18.363 38.9604 17.4463 38.8006 16.5675 38.51C16.5515 38.5038 16.5358 38.4966 16.5206 38.4886C17.4939 38.5396 18.4681 38.4082 19.3931 38.1012C20.1873 37.838 20.9369 37.4558 21.6163 36.9676C22.1424 36.5925 22.6234 36.1578 23.0499 35.6724C23.6655 34.9773 24.1252 34.1584 24.3979 33.2708C24.6263 32.5461 24.7329 31.7885 24.7135 31.0288C24.6893 30.1867 24.4887 29.3589 24.1249 28.5991C23.7892 27.8913 23.3234 27.253 22.7517 26.7175C22.0718 26.0383 21.2457 25.5236 20.3364 25.2128C19.5086 24.9529 18.6241 24.9326 17.7852 25.1541C17.0301 25.3466 16.3253 25.6998 15.7191 26.1895C14.9304 26.7827 14.331 27.5922 13.9937 28.5197C13.795 29.1132 13.7398 29.7454 13.8326 30.3644C13.9136 30.9705 14.1222 31.5527 14.4448 32.0722C14.7993 32.6476 15.2936 33.124 15.8817 33.4569C16.4698 33.7898 17.1326 33.9686 17.8083 33.9764C18.5965 33.986 19.362 33.7125 19.9656 33.2055C20.5692 32.6985 20.9708 31.9917 21.0974 31.2136C21.1736 30.8148 21.1572 30.4038 21.0493 30.0124C20.9414 29.621 20.745 29.2596 20.4753 28.9561C20.4014 28.8685 20.2961 28.8135 20.182 28.8027C20.0679 28.792 19.9542 28.8265 19.8652 28.8987C19.8181 28.9329 19.7785 28.9765 19.7491 29.0268C19.7197 29.0771 19.701 29.1329 19.6943 29.1908C19.6876 29.2487 19.6929 29.3073 19.71 29.363C19.7272 29.4187 19.7556 29.4702 19.7937 29.5143C20.6043 30.3288 20.3221 31.9376 19.1815 32.6954C18.4871 33.1566 17.7345 33.1867 16.9578 32.959C15.1281 32.4233 14.2917 30.3762 14.8437 28.7646C15.0569 28.1852 15.4043 27.6645 15.8576 27.2453C16.5127 26.5813 17.3534 26.131 18.2692 25.9538C19.1663 25.7793 20.0962 25.9423 20.8805 26.4114C21.7153 26.8802 22.4281 27.5388 22.9615 28.3339C23.5634 29.2298 23.8672 30.2927 23.8299 31.3713C23.8074 32.3054 23.5649 33.221 23.122 34.0438C22.7719 34.678 22.3129 35.2458 21.7661 35.721C21.0505 36.3685 20.2152 36.8699 19.3072 37.1968C18.075 37.6577 16.7311 37.7294 15.4568 37.4023C14.5009 37.1399 13.6064 36.6908 12.825 36.0809C11.8686 35.3533 11.1103 34.3971 10.6196 33.3001C10.0682 32.1397 9.74738 30.8833 9.67496 29.6006C9.61858 28.6365 9.70562 27.6694 9.93322 26.7309C9.96727 26.5924 10.0076 26.4565 10.048 26.3203C11.7979 26.6535 13.6028 26.5533 15.3052 26.0287C17.0075 25.504 18.5557 24.5708 19.8146 23.3103C19.8788 23.2459 19.9393 23.1791 20.0016 23.1135C21.0211 24.1903 22.2495 25.0478 23.6118 25.6334C24.9741 26.2189 26.4416 26.5203 27.9244 26.5189C28.3508 26.5186 28.7769 26.4935 29.2004 26.4437C29.2061 26.4657 29.2146 26.4887 29.2199 26.5122ZM2.17194 15.2844C2.1959 14.3591 2.35569 13.4424 2.64619 12.5635C2.65246 12.5475 2.65962 12.5319 2.66762 12.5167C2.61663 13.49 2.74802 14.4642 3.05501 15.3893C3.31812 16.1835 3.7003 16.9332 4.1885 17.6128C4.56368 18.1389 4.99833 18.6199 5.48383 19.0463C6.1788 19.662 6.99759 20.1216 7.8851 20.3943C8.60982 20.6227 9.3674 20.7294 10.127 20.71C10.9691 20.6857 11.7968 20.4852 12.5566 20.1213C13.2644 19.786 13.9028 19.3205 14.4385 18.749C15.1177 18.0688 15.6324 17.2423 15.9431 16.3327C16.2031 15.5048 16.2234 14.6202 16.0018 13.7813C15.8093 13.0261 15.4561 12.3213 14.9665 11.7151C14.3733 10.9263 13.5638 10.3269 12.6364 9.98957C12.0429 9.79099 11.4108 9.73579 10.7918 9.82849C10.1857 9.90947 9.60358 10.1181 9.08401 10.4407C8.50864 10.7952 8.03233 11.2895 7.69944 11.8777C7.36655 12.4658 7.1879 13.1286 7.18014 13.8044C7.17026 14.5927 7.44368 15.3583 7.95067 15.962C8.45765 16.5657 9.1645 16.9673 9.9426 17.0937C10.3413 17.17 10.7522 17.1536 11.1436 17.0459C11.5349 16.9381 11.8963 16.7419 12.1998 16.4723C12.2874 16.3985 12.3425 16.2932 12.3533 16.1791C12.364 16.065 12.3295 15.9513 12.2572 15.8624C12.223 15.8152 12.1794 15.7757 12.1291 15.7462C12.0789 15.7168 12.023 15.6981 11.9651 15.6913C11.9073 15.6846 11.8486 15.6899 11.7929 15.707C11.7372 15.7241 11.6857 15.7526 11.6416 15.7907C10.8272 16.6013 9.2185 16.3191 8.46074 15.1784C8.00008 14.4826 7.97004 13.7302 8.19769 12.9534C8.73335 11.1237 10.7794 10.2873 12.3919 10.8394C12.9713 11.0526 13.4919 11.4001 13.911 11.8534C14.5751 12.5085 15.0253 13.3493 15.2025 14.2651C15.3771 15.1622 15.2141 16.0922 14.7449 16.8766C14.2761 17.7115 13.6174 18.4244 12.8221 18.9577C11.9263 19.5596 10.8635 19.8634 9.78496 19.8261C8.8509 19.8037 7.9353 19.5611 7.11261 19.1182C6.47818 18.7678 5.91039 18.3085 5.43524 17.7612C4.78767 17.0456 4.28635 16.2103 3.9595 15.3022C3.49893 14.0702 3.42735 12.7266 3.75443 11.4526C4.01669 10.4966 4.46572 9.60209 5.07558 8.82063C5.80326 7.86427 6.75944 7.10598 7.85641 6.61533C9.01667 6.06395 10.2729 5.74311 11.5555 5.67061C12.5195 5.61423 13.4866 5.70127 14.4251 5.92889C15.2269 6.12508 16.0022 6.41735 16.734 6.79938H16.7357C16.7843 6.8254 16.8313 6.85084 16.8767 6.8759C16.9293 6.90441 16.9825 6.93196 17.0349 6.96161C17.0431 6.9664 17.0473 6.9708 17.054 6.97539C17.4354 7.18237 17.7973 7.42345 18.1353 7.69569C18.4305 7.9224 18.7131 8.1651 18.9818 8.42269C19.1096 8.55049 19.2305 8.67944 19.3501 8.80877C18.2985 10.1388 17.5706 11.6951 17.2239 13.3548C16.8772 15.0145 16.9212 16.7321 17.3524 18.3719C15.5614 18.7452 13.8928 19.5621 12.4994 20.7478C11.106 21.9334 10.0325 23.4498 9.37729 25.1581C7.24936 24.548 5.38553 23.2458 4.08057 21.4576C2.77562 19.6694 2.104 17.4972 2.17194 15.2844ZM21.7376 13.1063C21.8344 13.4743 21.9087 13.8479 21.96 14.2249C21.9884 14.3931 22.0115 14.5615 22.0247 14.7294C22.0759 15.3957 22.0609 16.0654 21.9799 16.7287C21.9882 16.7515 21.9902 16.7762 21.9855 16.8C21.9191 17.3206 21.8127 17.8353 21.6672 18.3396C20.5577 18.1265 19.422 18.0857 18.3002 18.2187C18.2791 18.1381 18.2686 18.0901 18.2686 18.0901C17.8994 16.6409 17.8566 15.1277 18.1433 13.66C18.3543 12.5768 18.7455 11.5367 19.3007 10.583C19.5082 10.2283 19.7369 9.88652 19.9858 9.55949C20.8048 10.6103 21.4009 11.8172 21.7376 13.1063ZM21.2425 19.5334C21.2376 19.5444 21.2319 19.555 21.2254 19.5651C21.0733 19.9368 20.8915 20.2955 20.6819 20.638C20.4735 20.9858 20.245 21.321 19.9974 21.6421C19.4444 20.9149 18.9923 20.1164 18.6533 19.268C18.649 19.2568 18.6456 19.2453 18.643 19.2336C18.6304 19.2026 18.6202 19.1747 18.6084 19.1446C18.6501 19.1402 18.6918 19.1347 18.7335 19.1314C19.3997 19.0802 20.0694 19.0952 20.7326 19.1762C20.7554 19.1679 20.78 19.1659 20.8038 19.1706C20.9892 19.1942 21.1726 19.2242 21.3553 19.2575C21.3188 19.3491 21.2817 19.4414 21.2425 19.5334ZM22.2973 19.476C22.7195 19.5949 23.1335 19.7412 23.5366 19.9141C23.5476 19.919 23.5582 19.9247 23.5684 19.9311C23.9399 20.0833 24.2986 20.2651 24.641 20.4748C25.927 21.2385 27.0274 22.2783 27.8626 23.5191C28.2759 24.1315 28.6179 24.7891 28.8819 25.4791C28.5658 25.5105 28.2787 25.5275 28.1067 25.5267C26.262 25.5606 24.4431 25.0889 22.8473 24.1628C22.5186 23.9711 22.202 23.7595 21.899 23.5292C21.7601 23.4303 21.6247 23.3278 21.4973 23.2181C21.1942 22.9577 20.9072 22.6792 20.6379 22.384C21.3381 21.5063 21.8979 20.5253 22.2973 19.476ZM19.3675 22.3859C18.8477 22.9401 18.2675 23.4342 17.6377 23.859C16.7227 24.4761 15.7107 24.9352 14.6437 25.2174C14.2267 25.3267 13.8032 25.4098 13.3758 25.4661C13.3731 25.4661 13.3706 25.4678 13.3679 25.4684C12.744 25.5643 12.1107 25.5836 11.482 25.5258V25.5241C11.1076 25.5019 10.7348 25.4572 10.3658 25.3901C10.495 25.0604 10.6414 24.7377 10.8042 24.4232V24.4217C10.8303 24.3729 10.8557 24.326 10.8808 24.2805C10.9095 24.2279 10.937 24.1747 10.9667 24.1225C10.9712 24.1141 10.9758 24.1099 10.9804 24.1033C11.1874 23.7219 11.4285 23.36 11.7007 23.022C11.9271 22.7269 12.1694 22.4443 12.4265 22.1755C13.7071 20.847 15.3268 19.8942 17.1101 19.4205C17.2855 19.374 17.4621 19.334 17.6394 19.2983C18.0436 20.4144 18.6273 21.457 19.3675 22.3849V22.3859ZM27.3134 21.3428C26.0043 20.0306 24.3817 19.0746 22.5996 18.5653C23.0735 16.8941 23.1424 15.134 22.8005 13.4308C22.4586 11.7276 21.7158 10.1305 20.6335 8.77165C20.8492 8.54448 21.0779 8.33004 21.3184 8.12941L21.3197 8.13055C21.7495 7.74805 22.2135 7.40587 22.7059 7.10835C24.6567 5.9184 26.9574 5.43575 29.2218 5.7414C31.4863 6.04705 33.5767 7.1224 35.1422 8.78696C35.7792 9.45824 36.3142 10.2194 36.73 11.0462C36.7368 11.062 36.7428 11.0782 36.7478 11.0946C36.0961 10.3699 35.3145 9.77351 34.4435 9.33623C33.696 8.96055 32.8956 8.7007 32.07 8.56561C31.4327 8.45886 30.7853 8.42599 30.1405 8.46765C29.2137 8.52381 28.3097 8.77784 27.4894 9.21264C26.8153 9.5635 26.2042 10.0238 25.6809 10.5748C25.1024 11.1874 24.6589 11.9146 24.3789 12.7093C24.1157 13.4471 23.9938 14.2279 24.0195 15.0109C24.0199 15.9718 24.2401 16.92 24.6632 17.7828C25.0649 18.552 25.676 19.1919 26.4259 19.6285C27.096 20.0265 27.8442 20.2752 28.6192 20.3576C29.5963 20.4959 30.5925 20.3473 31.4867 19.93C32.0468 19.6508 32.5329 19.2429 32.905 18.7396C33.2763 18.2535 33.5402 17.6941 33.6793 17.0985C33.8355 16.441 33.8228 15.7547 33.6424 15.1034C33.462 14.4521 33.1197 13.8571 32.6473 13.3738C32.097 12.8093 31.3622 12.4612 30.5769 12.3929C29.7915 12.3245 29.0076 12.5404 28.368 13.0013C28.0322 13.2294 27.7533 13.5317 27.5528 13.8847C27.3523 14.2378 27.2357 14.6322 27.2118 15.0374C27.202 15.1516 27.2375 15.2651 27.3105 15.3534C27.3835 15.4417 27.4883 15.4979 27.6022 15.5098C27.6598 15.519 27.7186 15.5161 27.775 15.5014C27.8314 15.4867 27.8841 15.4604 27.9298 15.4242C27.9755 15.3881 28.0132 15.3428 28.0405 15.2913C28.0678 15.2398 28.0841 15.1832 28.0883 15.1251C28.0908 13.976 29.4275 13.0378 30.7706 13.3089C31.5879 13.4738 32.1412 13.985 32.5295 14.6952C33.4439 16.3682 32.589 18.4067 31.0586 19.1559C30.498 19.4148 29.884 19.5371 29.267 19.5127C28.3342 19.5191 27.4213 19.243 26.6484 18.7207C25.8907 18.2097 25.3484 17.4369 25.1256 16.5506C24.867 15.6285 24.8288 14.6586 25.0141 13.7191C25.222 12.6601 25.7586 11.6936 26.5476 10.9572C27.2244 10.3127 28.0437 9.83699 28.9389 9.56868C29.635 9.36785 30.3609 9.29098 31.0836 9.34159C32.0475 9.38974 32.9926 9.62592 33.8658 10.0368C35.0627 10.5825 36.0634 11.4822 36.7329 12.6146C37.2232 13.4761 37.5382 14.4261 37.6596 15.4099C37.8212 16.6007 37.6814 17.813 37.2528 18.9357C36.8222 20.1461 36.1606 21.2614 35.305 22.2197C34.6629 22.9417 33.9173 23.5645 33.0923 24.0676C32.3867 24.4959 31.6318 24.8373 30.8443 25.0846H30.8428C30.79 25.1007 30.7393 25.1154 30.6888 25.1301C30.6314 25.1472 30.574 25.1652 30.5166 25.1812C30.5072 25.1839 30.5011 25.1837 30.4927 25.1854C30.244 25.2534 30.0356 25.3018 29.8581 25.3385C29.3135 23.8356 28.4447 22.4711 27.3134 21.3419V21.3428ZM32.5584 5.69778C31.8758 5.37522 31.1618 5.12396 30.4276 4.94801C30.3767 4.93615 30.326 4.9241 30.2746 4.91281C30.1736 4.89061 30.0721 4.86989 29.9702 4.85063C29.9128 4.83973 29.8543 4.82959 29.7963 4.81964C29.6859 4.8005 29.5756 4.78137 29.4642 4.76664C29.4271 4.76148 29.3896 4.75727 29.3523 4.75248C29.1817 4.73055 29.0115 4.71231 28.8417 4.69777C28.7606 4.69107 28.6795 4.68418 28.5978 4.67864C28.5394 4.67481 28.4812 4.67143 28.4231 4.6685C28.2575 4.66104 28.091 4.65587 27.9234 4.65587C26.4422 4.65448 24.9762 4.95514 23.615 5.53947C22.2538 6.12381 21.0261 6.97955 20.0068 8.05441C19.9425 7.98668 19.8802 7.91781 19.8138 7.85123C18.4084 6.44136 16.6432 5.44418 14.7103 4.96829C14.6382 4.9505 14.5657 4.93577 14.4934 4.9195C14.3179 4.88009 14.1419 4.84508 13.9654 4.81447C13.8315 4.79151 13.6975 4.76875 13.5636 4.75095C13.5036 4.74292 13.4435 4.73661 13.3836 4.72934C13.1942 4.70753 13.0046 4.6882 12.8139 4.67653H12.8036C12.5766 4.66276 12.3485 4.656 12.1193 4.65625C11.3212 4.65552 10.5254 4.7416 9.74593 4.913C8.94546 5.09069 8.16773 5.35865 7.42769 5.71174C10.8969 2.65043 15.3636 0.959956 19.9903 0.957349C24.6169 0.954743 29.0856 2.64019 32.5582 5.69759L32.5584 5.69778ZM0.958681 20C0.958646 18.9319 1.04824 17.8656 1.22651 16.8125C1.30878 17.5408 1.46387 18.259 1.68947 18.9564C1.68947 18.9546 1.68947 18.9535 1.691 18.9518C1.96204 19.7863 2.33137 20.5856 2.7912 21.3329C2.81875 21.3773 2.8461 21.4217 2.87442 21.4659C2.93015 21.5531 2.98754 21.6395 3.04659 21.7251C3.07969 21.7737 3.11355 21.8219 3.1476 21.8699C3.21207 21.9614 3.27712 22.0524 3.34484 22.1422C3.36741 22.1722 3.39094 22.2015 3.4139 22.2313C3.51912 22.3678 3.62663 22.5011 3.73644 22.6312C3.78905 22.6933 3.84147 22.7555 3.8958 22.8167C3.93406 22.8606 3.97283 22.9042 4.01211 22.9474C4.12403 23.0699 4.23805 23.1912 4.35646 23.3098C5.66499 24.6217 7.28695 25.5776 9.06852 26.0867C9.03485 26.2059 9.00296 26.3255 8.97287 26.4456C8.95527 26.5178 8.94054 26.5903 8.92428 26.6628C8.88487 26.838 8.84979 27.014 8.81906 27.1906C8.79629 27.3245 8.77353 27.4585 8.75573 27.5924C8.7477 27.6523 8.7412 27.7123 8.73412 27.7722C8.71231 27.9616 8.69299 28.1512 8.68113 28.342V28.3523C8.66735 28.5794 8.66066 28.8076 8.66104 29.0366C8.66005 29.8347 8.74588 30.6306 8.917 31.4101C9.16991 32.5534 9.60591 33.6483 10.2081 34.6525C10.4721 35.0941 10.7675 35.516 11.092 35.9152C11.1199 35.9495 11.1446 35.9866 11.1708 36.0222L11.1591 36.0325C11.3774 36.2961 11.6085 36.5529 11.8555 36.7999C12.1425 37.0873 12.4452 37.3587 12.7623 37.6128C9.27297 36.1744 6.28886 33.7331 4.18769 30.5978C2.08652 27.4625 0.962766 23.7743 0.958681 20ZM25.5807 38.2087C25.6301 38.1762 25.6798 38.1442 25.7288 38.1108C25.7777 38.0773 25.8244 38.0438 25.8736 38.0097C25.965 37.9453 26.0561 37.8802 26.1458 37.8125C26.1757 37.7899 26.2051 37.7664 26.235 37.7434C26.3714 37.6385 26.5047 37.5309 26.6348 37.4209C26.697 37.3683 26.7591 37.3158 26.8204 37.2617C26.8641 37.2234 26.9077 37.1847 26.951 37.1454C27.0735 37.0333 27.1947 36.9194 27.3134 36.801C28.6646 35.4503 29.638 33.7688 30.1364 31.9244C30.6348 30.0799 30.6408 28.137 30.1537 26.2895C31.3604 26.0392 32.5158 25.5853 33.5704 24.9474C33.6339 24.9092 33.6957 24.868 33.7585 24.8282C33.9102 24.7322 34.0594 24.6325 34.2059 24.5292C34.3167 24.451 34.4273 24.3725 34.5348 24.2901C34.583 24.2535 34.6304 24.2155 34.6773 24.1782C34.8267 24.0597 34.9744 23.9392 35.1173 23.8127L35.1253 23.8059C35.2956 23.6551 35.4614 23.4986 35.6227 23.3364C36.1876 22.7725 36.6895 22.1489 37.1195 21.4766C37.7492 20.4892 38.2154 19.4067 38.5 18.2707C38.625 17.7752 38.7145 17.2715 38.7678 16.7633C39.5547 21.3304 38.6497 26.0278 36.2224 29.9756C33.7951 33.9234 30.0119 36.8509 25.5815 38.2099L25.5807 38.2087Z" fill="#5B1F7B"/>
</svg>
